<svg width="73" height="13" viewBox="0 0 73 13" fill="none" xmlns="http://www.w3.org/2000/svg">
<path d="M7.59326 0.342495L9.50805 4.16936C9.52375 4.20025 9.54669 4.227 9.57498 4.2474C9.60326 4.26779 9.63607 4.28124 9.67068 4.28663L13.9462 4.89886C14.0011 4.90937 14.0499 4.94027 14.0824 4.98519C14.115 5.03011 14.1288 5.08563 14.121 5.1403C14.1139 5.18672 14.0918 5.22964 14.0581 5.26274L10.9734 8.24111C10.9482 8.26503 10.9293 8.29466 10.9184 8.32741C10.9074 8.36017 10.9047 8.39507 10.9105 8.42908L11.6432 12.6354C11.6524 12.6908 11.6393 12.7477 11.6066 12.7937C11.5739 12.8398 11.5243 12.8715 11.4683 12.882C11.421 12.8894 11.3726 12.8815 11.3302 12.8596L7.50058 10.8746C7.4696 10.8584 7.43508 10.85 7.40003 10.85C7.36498 10.85 7.33046 10.8584 7.29948 10.8746L3.4699 12.8596C3.4343 12.8783 3.39408 12.8868 3.35383 12.884C3.31358 12.8813 3.27492 12.8674 3.24228 12.844C3.20963 12.8206 3.18431 12.7887 3.16921 12.7518C3.15411 12.7149 3.14984 12.6745 3.15688 12.6354L3.88783 8.43426C3.894 8.40038 3.89164 8.36552 3.88097 8.33275C3.8703 8.29998 3.85164 8.27028 3.82663 8.24628L0.727983 5.26792C0.707734 5.24819 0.691659 5.22469 0.680686 5.19879C0.669713 5.17288 0.664062 5.14509 0.664062 5.11702C0.664062 5.08895 0.669713 5.06115 0.680686 5.03524C0.691659 5.00934 0.707734 4.98585 0.727983 4.96612C0.761553 4.93284 0.805075 4.91107 0.852137 4.90404L5.13288 4.29007C5.16751 4.28542 5.20045 4.27246 5.22881 4.25231C5.25717 4.23217 5.28007 4.20545 5.29551 4.17453L7.2103 0.347663C7.22293 0.322533 7.24049 0.300123 7.26195 0.281728C7.28342 0.263333 7.30837 0.249319 7.33537 0.240497C7.36236 0.231676 7.39087 0.228226 7.41923 0.23034C7.44759 0.232453 7.47524 0.240091 7.50058 0.252813C7.54017 0.272483 7.57257 0.303832 7.59326 0.342495Z" fill="#F3CC30"/>
<path d="M7.39978 1.22729L5.69483 4.48676C5.65045 4.57072 5.5854 4.64235 5.50566 4.69508C5.42592 4.74781 5.33404 4.77995 5.23843 4.78856L1.53125 5.12313L5.44477 5.29559C5.56601 5.30122 5.68591 5.26867 5.78714 5.20263C5.88837 5.13659 5.96567 5.04049 6.00784 4.92826L7.39978 1.22729Z" fill="#F7DB5E"/>
<path d="M3.24071 12.1529L3.15502 12.6358C3.14874 12.675 3.15356 12.7152 3.16896 12.7519C3.18436 12.7886 3.20974 12.8204 3.2423 12.8437C3.27486 12.8671 3.31334 12.8812 3.35348 12.8843C3.39362 12.8875 3.43387 12.8797 3.46978 12.8617L7.30112 10.875C7.3321 10.8588 7.36662 10.8504 7.40167 10.8504C7.43672 10.8504 7.47123 10.8588 7.50221 10.875L11.3231 12.8617C11.374 12.8874 11.433 12.8924 11.4876 12.8756C11.5422 12.8589 11.588 12.8217 11.6151 12.772C11.6368 12.73 11.6441 12.6822 11.6361 12.6358L10.9121 8.43469C10.906 8.4004 10.9086 8.36517 10.9196 8.33208C10.9305 8.299 10.9496 8.26909 10.9751 8.24499L14.072 5.26662C14.0922 5.24689 14.1083 5.22339 14.1193 5.19749C14.1302 5.17158 14.1359 5.14379 14.1359 5.11572C14.1359 5.08765 14.1302 5.05986 14.1193 5.03395C14.1083 5.00805 14.0922 4.98455 14.072 4.96482C14.0384 4.93154 13.9949 4.90977 13.9478 4.90274L12.5139 4.69751C10.1987 8.80031 6.64711 10.9612 3.24071 12.1529Z" fill="#EDBD31"/>
<path d="M22.1966 0.342524L24.1114 4.16939C24.1268 4.20045 24.1497 4.22735 24.178 4.24778C24.2064 4.2682 24.2393 4.28155 24.274 4.28666L28.5547 4.89889C28.6115 4.907 28.6627 4.93696 28.6971 4.98221C28.7315 5.02746 28.7463 5.08432 28.7383 5.14033C28.7312 5.18675 28.7091 5.22966 28.6754 5.26277L25.5767 8.24114C25.5517 8.26515 25.5331 8.29484 25.5224 8.32761C25.5117 8.36039 25.5094 8.39523 25.5155 8.42911L26.2465 12.6354C26.2535 12.6746 26.2493 12.7149 26.2342 12.7518C26.2191 12.7887 26.1937 12.8207 26.1611 12.8441C26.1285 12.8674 26.0898 12.8813 26.0495 12.884C26.0093 12.8868 25.9691 12.8783 25.9335 12.8596L22.1039 10.8746C22.0729 10.8584 22.0384 10.85 22.0033 10.85C21.9683 10.85 21.9338 10.8584 21.9028 10.8746L18.0732 12.8596C18.0375 12.8781 17.9973 12.8864 17.957 12.8836C17.9168 12.8808 17.8781 12.8669 17.8454 12.8436C17.8127 12.8203 17.7873 12.7885 17.7719 12.7517C17.7565 12.7149 17.7519 12.6746 17.7584 12.6354L18.4946 8.43429C18.5008 8.40041 18.4985 8.36555 18.4878 8.33278C18.4771 8.30001 18.4584 8.27031 18.4334 8.24631L15.3295 5.26277C15.3093 5.24304 15.2932 5.21955 15.2822 5.19365C15.2713 5.16774 15.2656 5.13994 15.2656 5.11187C15.2656 5.0838 15.2713 5.05601 15.2822 5.0301C15.2932 5.0042 15.3093 4.9807 15.3295 4.96097C15.3631 4.92769 15.4066 4.90592 15.4537 4.89889L19.7344 4.28493C19.7691 4.28043 19.8021 4.26752 19.8305 4.24735C19.8589 4.22719 19.8818 4.2004 19.8971 4.16939L21.8171 0.342524C21.8355 0.307434 21.8634 0.278009 21.8976 0.257473C21.9318 0.236938 21.9711 0.226074 22.0112 0.226074C22.0513 0.226074 22.0906 0.236938 22.1248 0.257473C22.159 0.278009 22.1869 0.307434 22.2053 0.342524H22.1966Z" fill="#F3CC30"/>
<path d="M22.0035 1.22729L20.2968 4.48676C20.2525 4.57082 20.1875 4.64254 20.1078 4.69528C20.028 4.74803 19.9361 4.7801 19.8404 4.78856L16.1367 5.12313L20.0502 5.29559C20.1715 5.30122 20.2914 5.26867 20.3926 5.20263C20.4938 5.13659 20.5711 5.04049 20.6133 4.92826L22.0035 1.22729Z" fill="#F7DB5E"/>
<path d="M17.8409 12.1529L17.757 12.6358C17.7502 12.6749 17.7547 12.7152 17.7698 12.752C17.785 12.7888 17.8102 12.8207 17.8427 12.8441C17.8752 12.8676 17.9137 12.8817 17.9538 12.8848C17.9939 12.8879 18.0342 12.8799 18.07 12.8617L21.8996 10.875C21.9305 10.8588 21.9651 10.8504 22.0001 10.8504C22.0352 10.8504 22.0697 10.8588 22.1007 10.875L25.9302 12.8617C25.9811 12.8874 26.0402 12.8924 26.0948 12.8756C26.1494 12.8589 26.1952 12.8217 26.2223 12.772C26.2448 12.7303 26.2522 12.6822 26.2433 12.6358L25.5123 8.43469C25.5067 8.40041 25.5094 8.36529 25.5204 8.33228C25.5313 8.29928 25.5502 8.26935 25.5753 8.24499L28.6739 5.26662C28.714 5.22633 28.7364 5.17215 28.7364 5.11572C28.7364 5.05929 28.714 5.00512 28.6739 4.96482C28.6403 4.93154 28.5968 4.90977 28.5498 4.90274L27.1158 4.69751C24.8006 8.80031 21.2473 10.9612 17.8409 12.1529Z" fill="#EDBD31"/>
<path d="M36.7956 0.342648L38.7192 4.16951C38.7349 4.2004 38.7578 4.22716 38.7861 4.24755C38.8144 4.26795 38.8472 4.28139 38.8818 4.28678L43.1503 4.89901C43.2071 4.90712 43.2583 4.93708 43.2927 4.98233C43.3271 5.02758 43.3419 5.08444 43.3339 5.14045C43.3275 5.1871 43.3054 5.23025 43.271 5.26289L40.1776 8.24126C40.152 8.26491 40.1328 8.29451 40.1218 8.32734C40.1108 8.36018 40.1084 8.39521 40.1146 8.42924L40.8456 12.6355C40.8526 12.6747 40.8483 12.715 40.8332 12.7519C40.8181 12.7888 40.7928 12.8208 40.7602 12.8442C40.7275 12.8676 40.6889 12.8814 40.6486 12.8842C40.6084 12.8869 40.5682 12.8784 40.5326 12.8597L36.703 10.8747C36.672 10.8586 36.6375 10.8501 36.6024 10.8501C36.5674 10.8501 36.5329 10.8586 36.5019 10.8747L32.6723 12.8597C32.6472 12.8729 32.6197 12.881 32.5913 12.8837C32.563 12.8863 32.5345 12.8833 32.5073 12.875C32.4801 12.8666 32.4549 12.8531 32.4331 12.8351C32.4113 12.817 32.3933 12.7949 32.3803 12.77C32.3577 12.7289 32.3503 12.6814 32.3593 12.6355L33.0902 8.43441C33.096 8.4004 33.0933 8.36549 33.0823 8.33273C33.0714 8.29998 33.0525 8.27035 33.0273 8.24643L29.9304 5.26289C29.8899 5.22282 29.8672 5.16856 29.8672 5.11199C29.8672 5.05543 29.8899 5.00117 29.9304 4.96109C29.9639 4.92781 30.0075 4.90605 30.0545 4.89901L34.337 4.28506C34.3717 4.28041 34.4046 4.26744 34.433 4.24729C34.4613 4.22714 34.4842 4.20043 34.4997 4.16951L36.4232 0.342648C36.4413 0.307495 36.469 0.277972 36.5031 0.257356C36.5372 0.236739 36.5764 0.22583 36.6164 0.22583C36.6564 0.22583 36.6956 0.236739 36.7297 0.257356C36.7638 0.277972 36.7915 0.307495 36.8096 0.342648H36.7956Z" fill="#F3CC30"/>
<path d="M36.6012 1.22754L34.8945 4.48701C34.8506 4.57103 34.7859 4.64276 34.7065 4.69553C34.627 4.74829 34.5352 4.78038 34.4398 4.78881L30.7344 5.12338L34.6496 5.29584C34.7707 5.30164 34.8905 5.26913 34.9914 5.20304C35.0924 5.13695 35.1693 5.04075 35.211 4.9285L36.6012 1.22754Z" fill="#F7DB5E"/>
<path d="M32.4425 12.1529L32.3586 12.6358C32.3489 12.6913 32.3619 12.7484 32.3946 12.7946C32.4274 12.8407 32.4773 12.8723 32.5335 12.8824C32.5806 12.8902 32.629 12.883 32.6716 12.8617L36.5064 10.875C36.5374 10.8588 36.5719 10.8504 36.607 10.8504C36.642 10.8504 36.6766 10.8588 36.7075 10.875L40.5284 12.8617C40.5792 12.8879 40.6384 12.8931 40.6932 12.8763C40.7479 12.8595 40.7936 12.822 40.8204 12.772C40.8427 12.7302 40.8507 12.6824 40.8431 12.6358L40.1157 8.43469C40.1097 8.40055 40.1121 8.36547 40.1228 8.33245C40.1334 8.29943 40.152 8.26943 40.1769 8.24499L43.2755 5.26662C43.2958 5.24689 43.3119 5.22339 43.3228 5.19749C43.3338 5.17158 43.3395 5.14379 43.3395 5.11572C43.3395 5.08765 43.3338 5.05986 43.3228 5.03395C43.3119 5.00805 43.2958 4.98455 43.2755 4.96482C43.242 4.93154 43.1985 4.90977 43.1514 4.90274L41.7175 4.69751C39.4022 8.80031 35.8489 10.9612 32.4425 12.1529Z" fill="#EDBD31"/>
<path d="M51.3949 0.342739L53.3184 4.1696C53.3341 4.20049 53.357 4.22725 53.3853 4.24764C53.4136 4.26804 53.4464 4.28149 53.481 4.28687L57.7635 4.8991C57.8201 4.90764 57.871 4.9377 57.9053 4.98285C57.9396 5.02799 57.9546 5.08461 57.9471 5.14055C57.94 5.18696 57.9179 5.22988 57.8842 5.26299L54.7855 8.24135C54.7603 8.26528 54.7414 8.2949 54.7305 8.32766C54.7195 8.36041 54.7168 8.39531 54.7226 8.42933L55.4553 12.6356C55.4645 12.6911 55.4514 12.7479 55.4187 12.794C55.386 12.8401 55.3364 12.8717 55.2804 12.8822C55.2331 12.8896 55.1847 12.8818 55.1423 12.8598L51.3127 10.8748C51.2817 10.8586 51.2472 10.8502 51.2121 10.8502C51.1771 10.8502 51.1426 10.8586 51.1116 10.8748L47.282 12.8598C47.2464 12.8785 47.2062 12.887 47.1659 12.8843C47.1257 12.8815 47.087 12.8677 47.0544 12.8443C47.0217 12.8209 46.9964 12.7889 46.9813 12.752C46.9662 12.7151 46.9619 12.6748 46.969 12.6356L47.6964 8.43451C47.7026 8.40063 47.7002 8.36577 47.6896 8.33299C47.6789 8.30022 47.6602 8.27053 47.6352 8.24652L44.5366 5.26817C44.5163 5.24844 44.5002 5.22493 44.4893 5.19903C44.4783 5.17313 44.4727 5.14534 44.4727 5.11726C44.4727 5.08919 44.4783 5.06139 44.4893 5.03549C44.5002 5.00958 44.5163 4.98609 44.5366 4.96636C44.5701 4.93308 44.6137 4.91132 44.6607 4.90428L48.9415 4.29032C48.9761 4.28567 49.009 4.27271 49.0374 4.25256C49.0658 4.23241 49.0887 4.20569 49.1041 4.17477L51.0276 0.347907C51.0403 0.322777 51.0578 0.300367 51.0793 0.281972C51.1008 0.263577 51.1257 0.249563 51.1527 0.240742C51.1797 0.23192 51.2082 0.22847 51.2366 0.230584C51.2649 0.232697 51.2926 0.240335 51.3179 0.253057C51.3517 0.275139 51.3784 0.306248 51.3949 0.342739Z" fill="#F3CC30"/>
<path d="M51.1949 1.22754L49.49 4.48701C49.4456 4.57096 49.3805 4.6426 49.3008 4.69533C49.221 4.74806 49.1292 4.78019 49.0336 4.78881L45.3281 5.12338L49.2434 5.29584C49.3644 5.30164 49.4842 5.26913 49.5852 5.20304C49.6862 5.13695 49.7631 5.04075 49.8047 4.9285L51.1949 1.22754Z" fill="#F7DB5E"/>
<path d="M47.0419 12.1531L46.9563 12.636C46.9466 12.6916 46.9595 12.7486 46.9923 12.7948C47.025 12.841 47.0749 12.8726 47.1311 12.8826C47.1782 12.8906 47.2267 12.8833 47.2693 12.862L51.0989 10.8752C51.1298 10.8591 51.1643 10.8506 51.1994 10.8506C51.2344 10.8506 51.269 10.8591 51.2999 10.8752L55.1295 12.862C55.1804 12.8876 55.2395 12.8926 55.2941 12.8759C55.3487 12.8591 55.3945 12.8219 55.4216 12.7723C55.4432 12.7303 55.4506 12.6825 55.4425 12.636L54.7134 8.43494C54.7073 8.40079 54.7098 8.36572 54.7204 8.3327C54.7311 8.29967 54.7496 8.26968 54.7746 8.24523L57.8732 5.26687C57.8934 5.24714 57.9095 5.22363 57.9205 5.19773C57.9315 5.17183 57.9371 5.14404 57.9371 5.11596C57.9371 5.08789 57.9315 5.0601 57.9205 5.0342C57.9095 5.00829 57.8934 4.98479 57.8732 4.96506C57.8396 4.93178 57.7961 4.91002 57.749 4.90298L56.3151 4.69775C53.9999 8.80055 50.4484 10.9615 47.0419 12.1531Z" fill="#EDBD31"/>
<path d="M67.0283 4.61621L67.0293 4.61523C67.1171 4.79037 67.2451 4.94128 67.4023 5.05469C67.5603 5.16855 67.7431 5.24228 67.9346 5.27051H67.9385L70.624 5.65527L68.6885 7.52441C68.5464 7.66083 68.4395 7.83064 68.3779 8.01953C68.3171 8.2062 68.3032 8.40523 68.3369 8.59863V8.59961L68.7979 11.2549L66.3652 9.99316H66.3662C66.2364 9.92546 66.0954 9.8827 65.9512 9.86523L65.8057 9.85645C65.6117 9.85645 65.4199 9.90247 65.2471 9.99219L62.8066 11.2568L63.2637 8.61133L63.2646 8.6123C63.2914 8.46507 63.2899 8.31473 63.2617 8.16895L63.2246 8.02539L63.1699 7.88672C63.1071 7.75275 63.0198 7.63166 62.9131 7.5293H62.9141L60.9707 5.66113L63.6719 5.27344C63.8623 5.24666 64.0449 5.17588 64.2031 5.06348C64.3637 4.94942 64.4944 4.79682 64.583 4.61914L65.8037 2.17871L67.0283 4.61621Z" stroke="#D6D6D6" stroke-width="1.98832"/>
<mask id="path-14-inside-1_3605_7960" fill="white">
<path d="M65.7986 1.22729L64.0919 4.48676C64.0477 4.57082 63.9827 4.64254 63.9029 4.69528C63.8231 4.74803 63.7312 4.7801 63.6355 4.78856L59.9336 5.12313L63.8471 5.29559C63.9684 5.30122 64.0883 5.26867 64.1895 5.20263C64.2907 5.13659 64.368 5.04049 64.4102 4.92826L65.7986 1.22729Z"/>
</mask>
<path d="M65.7986 1.22729L67.6602 1.9257L64.0372 0.304976L65.7986 1.22729ZM64.0919 4.48676L65.8513 5.41308L65.8534 5.40908L64.0919 4.48676ZM63.6355 4.78856L63.4604 2.80797L63.4566 2.80832L63.6355 4.78856ZM59.9336 5.12313L59.7546 3.14289L59.8461 7.10952L59.9336 5.12313ZM63.8471 5.29559L63.9394 3.30941L63.9347 3.3092L63.8471 5.29559ZM64.4102 4.92826L66.2714 5.62769L66.2718 5.62666L64.4102 4.92826ZM65.7986 1.22729L64.0372 0.304976L62.3305 3.56444L64.0919 4.48676L65.8534 5.40908L67.5601 2.14961L65.7986 1.22729ZM64.0919 4.48676L62.3326 3.56044C62.4452 3.34654 62.609 3.1672 62.8062 3.03678L63.9029 4.69528L64.9996 6.35379C65.3564 6.11787 65.6502 5.7951 65.8513 5.41308L64.0919 4.48676ZM63.9029 4.69528L62.8062 3.03678C63.0033 2.9064 63.2284 2.8285 63.4604 2.80798L63.6355 4.78856L63.8107 6.76915C64.234 6.73171 64.6429 6.58965 64.9996 6.35379L63.9029 4.69528ZM63.6355 4.78856L63.4566 2.80832L59.7546 3.14289L59.9336 5.12313L60.1126 7.10338L63.8145 6.76881L63.6355 4.78856ZM59.9336 5.12313L59.8461 7.10952L63.7596 7.28198L63.8471 5.29559L63.9347 3.3092L60.0211 3.13674L59.9336 5.12313ZM63.8471 5.29559L63.7549 7.28177C64.291 7.30667 64.8236 7.16297 65.2759 6.86791L64.1895 5.20263L63.1031 3.53735C63.3529 3.37437 63.6457 3.29578 63.9394 3.30942L63.8471 5.29559ZM64.1895 5.20263L65.2759 6.86791C65.7286 6.57256 66.0791 6.1395 66.2714 5.62769L64.4102 4.92826L62.5489 4.22882C62.6569 3.94149 62.8528 3.70061 63.1031 3.53735L64.1895 5.20263ZM64.4102 4.92826L66.2718 5.62666L67.6602 1.9257L65.7986 1.22729L63.937 0.528893L62.5486 4.22985L64.4102 4.92826Z" fill="#D6D6D6" mask="url(#path-14-inside-1_3605_7960)"/>
<path d="M68.7891 11.2542L67.1543 10.4045C67.5988 10.0777 68.0347 9.72488 68.458 9.34302L68.7891 11.2542Z" stroke="#D6D6D6" stroke-width="1.98832"/>
</svg>
