<svg width="17" height="17" viewBox="0 0 17 17" fill="none" xmlns="http://www.w3.org/2000/svg">
<path d="M7.89406 2.16137C8.33908 1.78085 9.06788 1.78085 9.51935 2.16137L10.5384 3.03851C10.7319 3.2062 11.093 3.34164 11.351 3.34164H12.4475C13.1311 3.34164 13.6922 3.90275 13.6922 4.58641V5.68284C13.6922 5.93437 13.8277 6.30199 13.9953 6.49548L14.8725 7.51451C15.253 7.95953 15.253 8.68834 14.8725 9.13981L13.9953 10.1588C13.8277 10.3523 13.6922 10.7135 13.6922 10.9715V12.0679C13.6922 12.7516 13.1311 13.3127 12.4475 13.3127H11.351C11.0995 13.3127 10.7319 13.4481 10.5384 13.6158L9.51935 14.4929C9.07433 14.8735 8.34553 14.8735 7.89406 14.4929L6.87502 13.6158C6.68154 13.4481 6.32036 13.3127 6.06238 13.3127H4.9466C4.26295 13.3127 3.70183 12.7516 3.70183 12.0679V10.965C3.70183 10.7135 3.56639 10.3523 3.40515 10.1588L2.53446 9.13336C2.16039 8.68834 2.16039 7.96598 2.53446 7.52096L3.40515 6.49548C3.56639 6.30199 3.70183 5.94082 3.70183 5.68929V4.57996C3.70183 3.8963 4.26295 3.33519 4.9466 3.33519H6.06238C6.31391 3.33519 6.68154 3.19975 6.87502 3.03206L7.89406 2.16137Z" fill="#E8BA63"/>
<path d="M7.9179 10.3647C7.78891 10.3647 7.66637 10.3131 7.57607 10.2228L6.01528 8.66197C5.82824 8.47493 5.82824 8.16535 6.01528 7.97832C6.20232 7.79128 6.51189 7.79128 6.69893 7.97832L7.9179 9.19728L10.6912 6.42397C10.8783 6.23693 11.1878 6.23693 11.3749 6.42397C11.5619 6.61101 11.5619 6.92059 11.3749 7.10762L8.25973 10.2228C8.16943 10.3131 8.04689 10.3647 7.9179 10.3647Z" fill="black"/>
</svg>
