<svg width="44" height="45" viewBox="0 0 44 45" fill="none" xmlns="http://www.w3.org/2000/svg">
<path d="M21.7348 4.21631C31.7331 4.21631 39.8477 12.3309 39.8477 22.3292C39.8477 32.3275 31.7331 40.4421 21.7348 40.4421C11.7365 40.4421 3.62191 32.3275 3.62191 22.3292C3.62191 12.3309 11.7365 4.21631 21.7348 4.21631ZM29.1067 18.2357C29.3421 18.9421 30.121 19.3224 30.8274 19.0689C31.5338 18.8153 31.9142 18.0545 31.6606 17.3481C31.0991 15.718 29.5595 14.6131 27.8207 14.6131C26.0818 14.6131 24.5423 15.6999 23.9808 17.3481C23.7453 18.0545 24.1075 18.8334 24.8139 19.0689C24.9588 19.1232 25.1037 19.1413 25.2668 19.1413C25.8283 19.1413 26.3536 18.7972 26.5528 18.2176C26.7339 17.6923 27.2592 17.33 27.8207 17.33C28.3822 17.33 28.9075 17.6923 29.0886 18.2176L29.1067 18.2357ZM21.7348 33.1969C25.3755 33.1969 28.3822 30.5162 28.9075 27.0204C28.9799 26.4589 28.5633 25.9518 28.0018 25.9518H15.4677C14.9062 25.9518 14.4896 26.4589 14.562 27.0204C15.0692 30.5162 18.076 33.1969 21.7348 33.1969ZM12.4791 19.087C12.624 19.1413 12.7689 19.1594 12.9319 19.1594C13.4934 19.1594 14.0187 18.8153 14.218 18.2357C14.3991 17.7104 14.9243 17.3481 15.4858 17.3481C16.0473 17.3481 16.5726 17.7104 16.7537 18.2357C16.9892 18.9421 17.768 19.3224 18.4744 19.0689C19.1808 18.8153 19.5612 18.0545 19.3077 17.3481C18.7462 15.718 17.2065 14.6131 15.4677 14.6131C13.7289 14.6131 12.1893 15.6999 11.6278 17.3481C11.3923 18.0545 11.7546 18.8334 12.461 19.0689L12.4791 19.087Z" fill="url(#paint0_linear_3605_8120)"/>
<defs>
<linearGradient id="paint0_linear_3605_8120" x1="21.7348" y1="4.21631" x2="21.7348" y2="40.4421" gradientUnits="userSpaceOnUse">
<stop stop-color="#6975FA"/>
<stop offset="0.418269" stop-color="#9847C3"/>
<stop offset="1" stop-color="#E21C6A"/>
</linearGradient>
</defs>
</svg>
