<svg width="47" height="47" viewBox="0 0 47 47" fill="none" xmlns="http://www.w3.org/2000/svg">
<path d="M15.2155 31.4647C15.57 31.8096 15.7321 32.3067 15.6492 32.7923L14.5374 39.2417C14.3119 40.55 15.6877 41.5481 16.8651 40.9315L22.6919 37.8812C23.1293 37.6519 23.6496 37.6519 24.087 37.8812L29.9102 40.9277C31.0914 41.5463 32.4691 40.5461 32.2417 39.2358L31.1317 32.7904C31.0469 32.3029 31.2107 31.8076 31.5652 31.4627L36.4229 26.7495C37.3151 25.8843 36.8239 24.3717 35.5926 24.1945L28.8734 23.2233C28.384 23.152 27.9621 22.8456 27.7425 22.4043L24.8328 16.5331C24.2432 15.3423 22.5397 15.3423 21.9481 16.5331L19.0385 22.4043C18.8188 22.8456 18.397 23.152 17.9076 23.2233L11.1883 24.1945C9.95705 24.3737 9.46371 25.8843 10.3578 26.7495L15.2155 31.4647ZM23.3914 11.7351C22.5937 11.7351 21.9462 11.0877 21.9462 10.2899V6.43614C21.9462 5.63841 22.5937 4.99097 23.3914 4.99097C24.1892 4.99097 24.8366 5.63841 24.8366 6.43614V10.2899C24.8366 11.0877 24.1892 11.7351 23.3914 11.7351ZM11.83 19.4427C11.0323 19.4427 10.3848 18.7953 10.3848 17.9976V6.43614C10.3848 5.63841 11.0323 4.99097 11.83 4.99097C12.6278 4.99097 13.2752 5.63841 13.2752 6.43614V17.9976C13.2752 18.7953 12.6278 19.4427 11.83 19.4427ZM34.9528 19.4427C34.1551 19.4427 33.5077 18.7953 33.5077 17.9976V6.43614C33.5077 5.63841 34.1551 4.99097 34.9528 4.99097C35.7506 4.99097 36.398 5.63841 36.398 6.43614V17.9976C36.398 18.7953 35.7506 19.4427 34.9528 19.4427Z" fill="url(#paint0_linear_3605_8108)"/>
<defs>
<linearGradient id="paint0_linear_3605_8108" x1="23.39" y1="4.99097" x2="23.39" y2="41.1184" gradientUnits="userSpaceOnUse">
<stop stop-color="#6975FA"/>
<stop offset="0.418269" stop-color="#9847C3"/>
<stop offset="1" stop-color="#E21C6A"/>
</linearGradient>
</defs>
</svg>
