<svg width="34" height="30" viewBox="0 0 34 30" fill="none" xmlns="http://www.w3.org/2000/svg">
<path d="M32.5105 14.9287H29.8818C27.9453 14.9287 26.3768 16.4004 26.3768 18.2173C26.3768 20.0342 27.9453 21.5059 29.8818 21.5059H32.5105C32.9941 21.5059 33.3867 21.8742 33.3867 22.328V26.4388C33.3867 28.2557 31.8182 29.7273 29.8818 29.7273H23.7481C23.2645 29.7273 22.8719 29.359 22.8719 28.9052V26.4388C22.8719 24.6218 21.3034 23.1502 19.367 23.1502C17.4305 23.1502 15.862 24.6218 15.862 26.4388V28.9052C15.862 29.359 15.4695 29.7273 14.9858 29.7273H10.6046C8.66816 29.7273 7.09971 28.2557 7.09971 26.4388V22.328C7.09971 21.8742 6.70715 21.5059 6.22347 21.5059H3.59478C1.6583 21.5059 0.0898438 20.0342 0.0898438 18.2173C0.0898438 16.4004 1.6583 14.9287 3.59478 14.9287H6.22347C6.70715 14.9287 7.09971 14.5604 7.09971 14.1066V9.99586C7.09971 8.17892 8.66816 6.70728 10.6046 6.70728H14.9858C15.4695 6.70728 15.862 6.33896 15.862 5.88514V3.4187C15.862 1.60177 17.4305 0.130127 19.367 0.130127C21.3034 0.130127 22.8719 1.60177 22.8719 3.4187V5.88514C22.8719 6.33896 23.2645 6.70728 23.7481 6.70728H29.8818C31.8182 6.70728 33.3867 8.17892 33.3867 9.99586V14.1066C33.3867 14.5604 32.9941 14.9287 32.5105 14.9287Z" fill="url(#paint0_linear_3605_8116)"/>
<defs>
<linearGradient id="paint0_linear_3605_8116" x1="16.7383" y1="0.130127" x2="16.7383" y2="29.7273" gradientUnits="userSpaceOnUse">
<stop stop-color="#6975FA"/>
<stop offset="0.418269" stop-color="#9847C3"/>
<stop offset="1" stop-color="#E21C6A"/>
</linearGradient>
</defs>
</svg>
