<svg width="47" height="47" viewBox="0 0 47 47" fill="none" xmlns="http://www.w3.org/2000/svg">
<path d="M13.5708 38.3521C12.1064 39.8166 6.53765 41.2039 5.92104 41.3581C5.8825 41.3581 5.84397 41.3581 5.80543 41.3581C5.67055 41.3581 5.55495 41.3003 5.4586 41.2232C5.34299 41.1076 5.28518 40.9342 5.34299 40.7608C5.51641 40.1056 7.09648 34.3056 8.54165 32.8412C9.29315 32.0897 10.2758 31.6658 11.2585 31.7043C12.2027 31.7236 13.1277 32.1282 13.8406 32.8412C15.2858 34.2864 15.1509 36.7528 13.5516 38.3521H13.5708ZM14.9389 14.5356C11.4705 15.0944 8.50311 17.4838 7.21209 20.7403L5.36222 25.3456C5.28514 25.4997 5.3237 25.6924 5.43931 25.8273C5.53566 25.9429 5.67055 26.0007 5.80543 26.0007C5.84397 26.0007 5.88248 26.0007 5.90175 25.9814L12.3955 24.5363C13.6287 20.5476 14.8426 17.3489 17.1741 14.0732L14.9389 14.5356ZM22.2034 34.3056C26.1535 33.188 29.3521 32.0319 32.6471 29.7196L32.204 31.8007C31.6645 35.2498 29.2751 38.198 25.9994 39.489L21.3941 41.3388C21.3941 41.3388 21.2784 41.3774 21.2206 41.3774C21.105 41.3774 20.9894 41.3388 20.9123 41.2618C20.7774 41.1461 20.7197 40.9727 20.7582 40.7993L22.2034 34.3056ZM15.9602 20.22L26.5774 30.8179C25.3635 31.3189 24.0917 31.7429 22.6851 32.1475C21.7602 32.4173 20.7582 32.687 19.7177 32.9761C19.6406 32.9761 19.5442 33.0146 19.4672 33.0146C19.2167 33.0146 18.9662 32.9183 18.7735 32.7256L13.9177 27.8698C13.6672 27.6193 13.5708 27.2339 13.6864 26.9063C13.9948 25.9044 14.2838 24.9602 14.5728 24.0545C15.016 22.6864 15.4592 21.4147 15.9602 20.22ZM40.0464 7.32903C39.9694 6.94365 39.6803 6.65461 39.2757 6.57753C38.4664 6.42338 36.9442 6.21143 35.0365 6.21143C31.3369 6.21143 26.2306 7.03999 22.4153 10.8745C21.4519 11.838 20.6233 12.7436 19.8911 13.63C18.6 15.2101 17.6173 16.7516 16.8273 18.3702C16.8273 18.3702 16.8401 18.3766 16.8658 18.3894L28.4272 29.9316L28.4658 29.9701C30.0459 29.2186 31.5295 28.2744 33.0711 27.0412C33.996 26.2897 34.9594 25.4226 35.9614 24.4206C41.7614 18.6207 40.5089 9.73766 40.0464 7.32903ZM29.41 21.6652C27.0206 21.6652 25.0744 19.7383 25.0744 17.3489C25.0744 14.9596 27.0206 13.0134 29.41 13.0134C31.7993 13.0134 33.7455 14.9596 33.7455 17.3489C33.7455 19.7383 31.7993 21.6652 29.41 21.6652Z" fill="url(#paint0_linear_3605_8112)"/>
<defs>
<linearGradient id="paint0_linear_3605_8112" x1="22.9038" y1="6.21143" x2="22.9038" y2="41.3774" gradientUnits="userSpaceOnUse">
<stop stop-color="#6975FA"/>
<stop offset="0.418269" stop-color="#9847C3"/>
<stop offset="1" stop-color="#E21C6A"/>
</linearGradient>
</defs>
</svg>
