<svg width="17" height="16" viewBox="0 0 17 16" fill="none" xmlns="http://www.w3.org/2000/svg">
<path d="M5.61241 13.8115C5.59294 13.8115 5.56697 13.8244 5.5475 13.8244C4.28814 13.2013 3.26249 12.1691 2.63281 10.9098C2.63281 10.8903 2.6458 10.8643 2.6458 10.8448C3.43776 11.0785 4.25569 11.2538 5.06712 11.3901C5.20994 12.2081 5.37872 13.0195 5.61241 13.8115Z" fill="#232323"/>
<path d="M14.2412 10.9163C13.5985 12.2081 12.5274 13.2532 11.2227 13.8829C11.4693 13.0584 11.6771 12.2275 11.8134 11.3901C12.6313 11.2538 13.4363 11.0785 14.2282 10.8448C14.2217 10.8708 14.2412 10.8968 14.2412 10.9163Z" fill="#232323"/>
<path d="M14.2931 5.24272C13.4752 4.99604 12.6508 4.79481 11.8134 4.65199C11.6771 3.81459 11.4758 2.98368 11.2227 2.17224C12.5664 2.8149 13.6505 3.89898 14.2931 5.24272Z" fill="#232323"/>
<path d="M5.60965 2.2436C5.37596 3.03556 5.20718 3.8405 5.07086 4.65843C4.23346 4.78826 3.40255 4.99599 2.57812 5.24267C3.2078 3.93788 4.25293 2.86678 5.54474 2.22412C5.56421 2.22412 5.59018 2.2436 5.60965 2.2436Z" fill="#232323"/>
<path d="M10.699 4.51561C9.19301 4.34683 7.674 4.34683 6.16797 4.51561C6.33026 3.62627 6.53798 2.73694 6.8301 1.88006C6.84308 1.82813 6.83659 1.78918 6.84308 1.73725C7.35591 1.61391 7.88172 1.53601 8.4335 1.53601C8.97879 1.53601 9.51109 1.61391 10.0174 1.73725C10.0239 1.78918 10.0239 1.82813 10.0369 1.88006C10.329 2.74343 10.5367 3.62627 10.699 4.51561Z" fill="#232323"/>
<path d="M4.92491 10.2932C4.02908 10.1309 3.14624 9.92314 2.28936 9.63102C2.23743 9.61804 2.19848 9.62453 2.14655 9.61804C2.02321 9.10521 1.94531 8.5794 1.94531 8.02762C1.94531 7.48233 2.02321 6.95003 2.14655 6.44369C2.19848 6.4372 2.23743 6.4372 2.28936 6.42422C3.15273 6.13859 4.02908 5.92437 4.92491 5.76208C4.76262 7.26811 4.76262 8.78712 4.92491 10.2932Z" fill="#232323"/>
<path d="M14.9288 8.02762C14.9288 8.5794 14.8509 9.10521 14.7276 9.61804C14.6756 9.62453 14.6367 9.61804 14.5848 9.63102C13.7214 9.91664 12.8386 10.1309 11.9492 10.2932C12.118 8.78712 12.118 7.26811 11.9492 5.76208C12.8386 5.92437 13.7279 6.1321 14.5848 6.42422C14.6367 6.4372 14.6756 6.44369 14.7276 6.44369C14.8509 6.95652 14.9288 7.48233 14.9288 8.02762Z" fill="#232323"/>
<path d="M10.699 11.5393C10.5367 12.4351 10.329 13.318 10.0369 14.1749C10.0239 14.2268 10.0239 14.2657 10.0174 14.3177C9.51109 14.441 8.97879 14.5189 8.4335 14.5189C7.88172 14.5189 7.35591 14.441 6.84308 14.3177C6.83659 14.2657 6.84308 14.2268 6.8301 14.1749C6.54448 13.3115 6.33026 12.4351 6.16797 11.5393C6.92098 11.6237 7.674 11.6821 8.4335 11.6821C9.19301 11.6821 9.95251 11.6237 10.699 11.5393Z" fill="#232323"/>
<path d="M10.8794 10.4705C9.25582 10.6753 7.61706 10.6753 5.99348 10.4705C5.78863 8.84689 5.78863 7.20813 5.99348 5.58454C7.61706 5.3797 9.25582 5.3797 10.8794 5.58454C11.0843 7.20813 11.0843 8.84689 10.8794 10.4705Z" fill="#232323"/>
</svg>
