<svg width="17" height="17" viewBox="0 0 17 17" fill="none" xmlns="http://www.w3.org/2000/svg">
<path d="M13.6147 10.2567C13.4026 10.4607 13.3047 10.7545 13.3536 11.0482L14.0717 15.0629C14.1288 15.3974 13.9819 15.7402 13.7045 15.9442C13.4189 16.1481 13.0517 16.1726 12.7498 16.0094L9.13497 14.1245C9.00441 14.0511 8.86569 14.0184 8.72698 14.0103H8.4985C8.4169 14.0184 8.34346 14.0429 8.27818 14.0837L4.66337 15.9768C4.48386 16.0665 4.27986 16.091 4.08402 16.0665C3.59443 15.9686 3.2762 15.5117 3.3578 15.0221L4.08402 11.0074C4.12482 10.7145 4.03506 10.4118 3.82291 10.2078L0.876388 7.35183C0.623433 7.10704 0.541835 6.748 0.656072 6.42977C0.76215 6.10338 1.04448 5.86674 1.37414 5.81778L5.42958 5.22211C5.7315 5.18947 6.00893 5.0018 6.14765 4.72518L7.9265 1.06141C7.96729 0.979808 8.01625 0.898209 8.08969 0.84109L8.16313 0.783971C8.19577 0.735012 8.24473 0.702373 8.29369 0.677893L8.37529 0.645254L8.514 0.588135H8.85672C9.15863 0.612614 9.42791 0.800291 9.57478 1.07773L11.3781 4.72518C11.5087 4.98629 11.7616 5.17397 12.0554 5.22211L16.1108 5.80962C16.4535 5.85858 16.7391 6.09522 16.8534 6.42161C16.9594 6.748 16.8615 7.10704 16.6167 7.33551L13.565 10.2241L13.6147 10.2567Z" fill="#E8BA63"/>
</svg>
