<svg width="48" height="48" viewBox="0 0 48 48" fill="none" xmlns="http://www.w3.org/2000/svg">
<path d="M15.8172 31.8499C16.1818 32.2046 16.3484 32.7158 16.2632 33.2151L15.1198 39.8471C14.888 41.1925 16.3028 42.2187 17.5134 41.5847L23.5052 38.448C23.955 38.2123 24.4899 38.2123 24.9397 38.448L30.9278 41.5808C32.1425 42.2169 33.5591 41.1884 33.3253 39.841L32.1839 33.2131C32.0967 32.7118 32.2651 32.2026 32.6297 31.8479L37.6249 27.0013C38.5423 26.1116 38.0372 24.5562 36.7711 24.3739L29.8617 23.3752C29.3584 23.3019 28.9246 22.9869 28.6987 22.5331L25.7067 16.4957C25.1004 15.2712 23.3487 15.2712 22.7404 16.4957L19.7484 22.5331C19.5225 22.9869 19.0887 23.3019 18.5854 23.3752L11.676 24.3739C10.4099 24.5582 9.90258 26.1116 10.822 27.0013L15.8172 31.8499ZM24.2245 11.5619C23.4042 11.5619 22.7384 10.8962 22.7384 10.0759V6.11297C22.7384 5.29266 23.4042 4.62689 24.2245 4.62689C25.0448 4.62689 25.7106 5.29266 25.7106 6.11297V10.0759C25.7106 10.8962 25.0448 11.5619 24.2245 11.5619ZM12.3359 19.4877C11.5155 19.4877 10.8498 18.8219 10.8498 18.0016V6.11297C10.8498 5.29266 11.5155 4.62689 12.3359 4.62689C13.1562 4.62689 13.8219 5.29266 13.8219 6.11297V18.0016C13.8219 18.8219 13.1562 19.4877 12.3359 19.4877ZM36.1132 19.4877C35.2928 19.4877 34.6271 18.8219 34.6271 18.0016V6.11297C34.6271 5.29266 35.2928 4.62689 36.1132 4.62689C36.9335 4.62689 37.5992 5.29266 37.5992 6.11297V18.0016C37.5992 18.8219 36.9335 19.4877 36.1132 19.4877Z" fill="#94A153"/>
</svg>
