<svg width="75" height="14" viewBox="0 0 75 14" fill="none" xmlns="http://www.w3.org/2000/svg">
<path d="M65.9284 1.33874C66.2259 0.743681 67.0689 0.768475 67.3416 1.33874L68.978 4.63637L72.598 5.15705C73.2426 5.25622 73.4906 6.04964 73.0195 6.52073L70.4161 9.07453L71.036 12.6697C71.1351 13.3143 70.4409 13.8102 69.8706 13.5127L66.6474 11.8019L63.3993 13.5127C62.8291 13.8102 62.1348 13.3143 62.234 12.6697L62.8539 9.07453L60.2505 6.52073C59.7794 6.04964 60.0273 5.25622 60.672 5.15705L64.3167 4.63637L65.9284 1.33874Z" fill="#FFD651"/>
<path d="M51.1159 1.33874C51.4134 0.743681 52.2564 0.768475 52.5291 1.33874L54.1655 4.63637L57.7855 5.15705C58.4301 5.25622 58.6781 6.04964 58.207 6.52073L55.6036 9.07453L56.2235 12.6697C56.3226 13.3143 55.6284 13.8102 55.0581 13.5127L51.8349 11.8019L48.5868 13.5127C48.0166 13.8102 47.3223 13.3143 47.4215 12.6697L48.0414 9.07453L45.438 6.52073C44.9669 6.04964 45.2148 5.25622 45.8595 5.15705L49.5042 4.63637L51.1159 1.33874Z" fill="#FFD651"/>
<path d="M36.3073 1.33874C36.6048 0.743681 37.4478 0.768475 37.7205 1.33874L39.3569 4.63637L42.9769 5.15705C43.6215 5.25622 43.8695 6.04964 43.3984 6.52073L40.795 9.07453L41.4149 12.6697C41.514 13.3143 40.8198 13.8102 40.2495 13.5127L37.0263 11.8019L33.7783 13.5127C33.208 13.8102 32.5137 13.3143 32.6129 12.6697L33.2328 9.07453L30.6294 6.52073C30.1583 6.04964 30.4062 5.25622 31.0509 5.15705L34.6956 4.63637L36.3073 1.33874Z" fill="#FFD651"/>
<path d="M21.4948 1.33874C21.7923 0.743681 22.6353 0.768475 22.908 1.33874L24.5444 4.63637L28.1644 5.15705C28.809 5.25622 29.057 6.04964 28.5859 6.52073L25.9825 9.07453L26.6024 12.6697C26.7015 13.3143 26.0073 13.8102 25.437 13.5127L22.2138 11.8019L18.9658 13.5127C18.3955 13.8102 17.7012 13.3143 17.8004 12.6697L18.4203 9.07453L15.8169 6.52073C15.3458 6.04964 15.5937 5.25622 16.2384 5.15705L19.8831 4.63637L21.4948 1.33874Z" fill="#FFD651"/>
<path d="M6.68617 1.3385C6.9837 0.743436 7.8267 0.768231 8.09944 1.3385L9.73585 4.63612L13.3558 5.1568C14.0005 5.25598 14.2484 6.04939 13.7773 6.52048L11.1739 9.07429L11.7938 12.6694C11.8929 13.3141 11.1987 13.81 10.6284 13.5124L7.4052 11.8016L4.15716 13.5124C3.58689 13.81 2.89266 13.3141 2.99183 12.6694L3.61169 9.07429L1.0083 6.52048C0.537208 6.04939 0.785149 5.25598 1.4298 5.1568L5.07454 4.63612L6.68617 1.3385Z" fill="#FFD651"/>
</svg>
